<svg width="436" height="435" viewBox="0 0 436 435" fill="none" xmlns="http://www.w3.org/2000/svg">
<g clip-path="url(#clip0_1726_1700)">
<path d="M399.161 33.1172C354.581 63.5816 304.737 106.166 272.494 141.217C256.867 158.415 232.849 188.224 222.815 202.965L220.347 206.732L212.615 199.689L204.719 192.81L217.057 173.974C230.875 153.173 247.161 122.381 251.767 108.459C255.551 96.8305 255.715 79.7966 251.932 72.9175C250.451 70.1331 246.503 66.0384 243.048 63.9092C226.105 53.4268 179.879 64.2368 145.992 86.6757C132.503 95.5202 113.749 113.701 102.728 128.441C92.0352 142.527 77.2299 170.535 70.6498 188.715C60.7797 216.231 52.2256 262.256 53.7061 280.436C54.0351 286.66 54.8576 287.807 57.9832 288.298C64.3987 289.281 66.0438 286.169 67.0308 271.1C69.0048 241.127 79.862 201.491 93.8447 172.828C116.546 126.64 151.256 95.8477 195.178 83.2361C239.1 70.6245 245.68 79.9604 223.308 123.364C214.26 141.053 190.737 177.25 188.269 177.25C187.118 177.25 178.892 170.699 169.68 162.673C150.269 145.967 147.143 144.001 141.386 145.475C136.286 146.786 130.693 153.501 130.693 158.251C130.693 163.983 134.641 168.078 154.546 183.146C164.91 191.008 173.464 197.887 173.464 198.542C173.464 199.034 164.087 211.318 152.737 225.731C141.221 239.981 131.68 251.937 131.516 252.265C131.187 252.592 126.252 250.135 120.33 246.86C107.827 239.981 94.8317 237.688 91.3771 241.619C88.0871 245.549 89.8966 249.972 95.3252 251.446C104.208 254.23 115.888 259.635 118.356 262.419C120.494 264.713 118.849 267.333 101.741 286.988C91.2126 299.108 70.3208 322.529 55.1866 339.072C7.31641 391.648 7.31641 391.648 7.31641 396.07C7.31641 400.82 15.377 409.828 19.6541 409.828C23.7666 409.828 31.3338 405.406 34.6238 401.147C36.4333 399.018 50.745 382.476 66.5373 364.623C82.3295 346.606 104.537 321.055 115.724 307.789C135.299 284.367 136.122 283.712 138.425 286.988C142.537 292.884 148.624 309.099 152.901 325.805C157.014 341.856 159.481 345.951 165.568 345.951C169.351 345.951 175.109 340.218 175.109 336.615C175.109 327.116 160.797 290.591 151.914 277.652C147.637 271.264 147.308 269.79 149.117 267.333C150.269 265.695 160.139 252.592 170.996 238.343C181.853 224.093 190.901 212.137 191.066 211.809C191.395 211.154 198.962 216.068 206.858 222.128C209.654 224.257 209.49 225.076 204.226 235.722C180.866 281.746 175.767 332.52 190.737 369.209C198.633 388.372 207.68 396.07 220.676 394.596C234.001 393.122 246.667 380.674 262.789 353.485C272.001 337.434 284.009 310.573 283.351 306.806C282.693 302.547 249.793 275.522 245.187 275.522C242.39 275.522 240.581 277.652 237.126 284.531C234.659 289.608 232.685 295.013 232.685 296.815C232.685 301.892 238.442 300.91 242.555 295.177L246.009 290.263L257.525 299.599C263.776 304.677 268.875 309.59 268.875 310.409C268.875 311.228 264.434 320.564 259.005 331.046C247.325 353.485 234.823 370.683 225.94 376.579C219.854 380.51 219.36 380.674 215.412 378.053C210.148 374.614 206.858 368.062 202.91 352.994C197.646 331.865 199.291 301.892 207.187 277.979C210.97 266.514 224.789 237.851 226.434 237.851C227.256 237.851 243.048 249.317 261.637 263.238C280.061 277.16 296.183 288.625 297.334 288.625C300.295 288.625 303.421 285.186 303.421 282.074C303.421 280.6 305.066 277.979 306.875 276.178C314.278 269.626 317.239 253.903 313.126 243.256C309.178 232.938 295.196 223.274 284.009 223.111C276.771 223.111 267.559 227.205 261.473 232.938L256.538 237.688L246.338 229.171L236.304 220.654L238.936 216.068C244.858 205.913 270.027 176.104 288.287 157.268C320.529 124.183 366.261 86.5119 409.031 58.0129C418.572 51.6252 426.798 45.2375 427.456 43.7634C429.43 38.3584 428.278 33.4448 424.166 29.1863C417.75 22.9624 412.65 23.7813 399.161 33.1172ZM295.031 240.308C301.776 246.205 304.243 254.066 301.282 261.109C296.676 271.919 295.36 271.755 280.719 258.98C273.317 252.592 267.23 246.696 267.23 246.041C267.23 245.222 269.533 242.765 272.33 240.472C279.074 234.739 288.122 234.739 295.031 240.308Z" fill="white"/>
<path d="M323.158 176.757C323.158 178.395 325.79 181.835 329.08 184.455C336.154 190.024 344.544 202.636 344.544 207.877C344.544 212.136 338.622 218.196 334.509 218.196C330.067 218.196 323.323 211.808 318.059 202.472C312.63 193.136 308.846 190.679 303.418 193.628C298.483 196.248 299.305 203.455 305.556 212.627C319.868 233.428 341.089 236.704 352.275 219.998C359.678 209.188 355.894 198.214 339.609 183.309C329.409 173.973 323.158 171.516 323.158 176.757Z" fill="white"/>
<path d="M170.173 248.83C159.974 252.597 156.849 265.7 164.416 273.07C168.199 277.001 170.831 277.82 177.576 277.329C181.853 276.838 189.914 268.157 189.914 263.898C189.914 253.743 179.221 245.554 170.173 248.83Z" fill="white"/>
</g>
<defs>
<clipPath id="clip0_1726_1700">
<rect width="421.126" height="384.9" fill="white" transform="translate(7.32031 24.9297)"/>
</clipPath>
</defs>
</svg>
