<svg width="1366" height="1366" viewBox="0 0 1366 1366" fill="none" xmlns="http://www.w3.org/2000/svg">
<circle cx="682.723" cy="682.812" r="682.664" fill="#FFFF33"/>
<path d="M419.984 1069.68V298.336H767.088C822.183 298.336 872.504 310.457 918.05 334.699C963.596 358.207 999.959 391.264 1027.14 433.872C1054.32 475.744 1067.91 524.596 1067.91 580.426C1067.91 636.257 1054.32 685.843 1027.14 729.185C999.959 771.792 963.596 805.217 918.05 829.459C872.504 853.701 822.183 865.822 767.088 865.822H657.998V1069.68H419.984ZM657.998 679.599H741.744C757.17 679.599 771.128 675.926 783.616 668.579C796.839 660.499 807.491 649.48 815.572 635.522C823.653 620.83 827.693 603.199 827.693 582.63C827.693 562.061 823.653 544.43 815.572 529.738C807.491 515.046 796.839 504.027 783.616 496.681C771.128 488.6 757.17 484.56 741.744 484.56H657.998V679.599Z" fill="#101001"/>
</svg>
