<svg width="237" height="2736" viewBox="0 0 237 2736" fill="none" xmlns="http://www.w3.org/2000/svg">
<path d="M106 0V276.651C106 323.249 129.879 366.597 169.266 391.497L174.641 394.895C258.138 447.683 256.187 570.119 171.05 620.22V620.22C130.746 643.938 106 687.212 106 733.978V1142.2C106 1168.32 95.6223 1193.38 77.15 1211.85V1211.85C38.6834 1250.32 38.6834 1312.68 77.15 1351.15L98 1372C147.982 1421.98 147.982 1503.02 98 1553V1553C48.0182 1602.98 48.0182 1684.02 98 1734L130.164 1766.16C162.382 1798.38 162.382 1850.62 130.164 1882.84V1882.84C114.692 1898.31 106 1919.29 106 1941.17V2080.3C106 2126.01 86.9029 2169.64 53.3223 2200.65V2200.65C-16.9146 2265.51 -16.9146 2376.49 53.3223 2441.35V2441.35C86.9029 2472.36 106 2515.99 106 2561.7V2655.5V2708.5C106 2723.14 94.1355 2735 79.5 2735V2735C64.8645 2735 53 2723.14 53 2708.5V2701.75C53 2683.39 67.8865 2668.5 86.25 2668.5H101.114C116.239 2668.5 128.5 2680.76 128.5 2695.89V2716C128.5 2732.98 107.976 2741.48 95.9731 2729.47V2729.47C88.5321 2722.03 88.5321 2709.97 95.9731 2702.53L101 2697.5C107.904 2690.6 119.096 2690.6 126 2697.5L132.349 2703.85C135.746 2707.25 135.746 2712.75 132.349 2716.15L128 2720.5C124.125 2724.37 117.5 2721.63 117.5 2716.15V2713C117.5 2711.34 116.157 2710 114.5 2710H112.75C112.06 2710 111.5 2710.56 111.5 2711.25V2711.5C111.5 2712.05 111.948 2712.5 112.5 2712.5V2712.5C113.052 2712.5 113.5 2712.05 113.5 2711.5V2711.5" stroke="black"/>
</svg>
